<?xml version="1.0" encoding="UTF-8" standalone="no"?><svg xmlns="http://www.w3.org/2000/svg" xmlns:xlink="http://www.w3.org/1999/xlink" contentScriptType="application/ecmascript" contentStyleType="text/css" height="141px" preserveAspectRatio="none" style="width:527px;height:141px;" version="1.1" viewBox="0 0 527 141" width="527px" zoomAndPan="magnify"><defs><filter height="300%" id="f1dgqsjvgzlbfd" width="300%" x="-1" y="-1"><feGaussianBlur result="blurOut" stdDeviation="2.0"/><feColorMatrix in="blurOut" result="blurOut2" type="matrix" values="0 0 0 0 0 0 0 0 0 0 0 0 0 0 0 0 0 0 .4 0"/><feOffset dx="4.0" dy="4.0" in="blurOut2" result="blurOut3"/><feBlend in="SourceGraphic" in2="blurOut3" mode="normal"/></filter></defs><g><!--MD5=[35680a17727e3a8927f37670a7abbd70]
class RelatorioUnicidadeGeral--><rect fill="#FEFECE" filter="url(#f1dgqsjvgzlbfd)" height="122.9094" id="RelatorioUnicidadeGeral" style="stroke: #A80036; stroke-width: 1.5;" width="186" x="6" y="8"/><ellipse cx="28.65" cy="24" fill="#ADD1B2" rx="11" ry="11" style="stroke: #A80036; stroke-width: 1.0;"/><path d="M31.6188,29.6406 Q31.0406,29.9375 30.4,30.0781 Q29.7594,30.2344 29.0563,30.2344 Q26.5563,30.2344 25.2281,28.5938 Q23.9156,26.9375 23.9156,23.8125 Q23.9156,20.6875 25.2281,19.0313 Q26.5563,17.375 29.0563,17.375 Q29.7594,17.375 30.4,17.5313 Q31.0563,17.6875 31.6188,17.9844 L31.6188,20.7031 Q30.9938,20.125 30.4,19.8594 Q29.8063,19.5781 29.1813,19.5781 Q27.8375,19.5781 27.15,20.6563 Q26.4625,21.7188 26.4625,23.8125 Q26.4625,25.9063 27.15,26.9844 Q27.8375,28.0469 29.1813,28.0469 Q29.8063,28.0469 30.4,27.7813 Q30.9938,27.5 31.6188,26.9219 L31.6188,29.6406 Z "/><text fill="#000000" font-family="sans-serif" font-size="12" lengthAdjust="spacingAndGlyphs" textLength="137" x="44.35" y="28.656">RelatorioUnicidadeGeral</text><line style="stroke: #A80036; stroke-width: 1.5;" x1="7" x2="191" y1="40" y2="40"/><ellipse cx="17" cy="51" fill="none" rx="3" ry="3" style="stroke: #038048; stroke-width: 1.0;"/><text fill="#000000" font-family="sans-serif" font-size="11" lengthAdjust="spacingAndGlyphs" textLength="143" x="26" y="55.7589">timestamp_inicio: DateTime</text><ellipse cx="17" cy="65.9819" fill="none" rx="3" ry="3" style="stroke: #038048; stroke-width: 1.0;"/><text fill="#000000" font-family="sans-serif" font-size="11" lengthAdjust="spacingAndGlyphs" textLength="142" x="26" y="70.7408">tabela_analisada: CharField</text><ellipse cx="17" cy="80.9638" fill="none" rx="3" ry="3" style="stroke: #038048; stroke-width: 1.0;"/><text fill="#000000" font-family="sans-serif" font-size="11" lengthAdjust="spacingAndGlyphs" textLength="120" x="26" y="85.7227">media_unicidade: Float</text><ellipse cx="17" cy="95.9457" fill="none" rx="3" ry="3" style="stroke: #038048; stroke-width: 1.0;"/><text fill="#000000" font-family="sans-serif" font-size="11" lengthAdjust="spacingAndGlyphs" textLength="160" x="26" y="100.7046">detalhe_por_coluna: JSONField</text><line style="stroke: #A80036; stroke-width: 1.0;" x1="7" x2="191" y1="107.9276" y2="107.9276"/><ellipse cx="17" cy="118.9276" fill="#84BE84" rx="3" ry="3" style="stroke: #038048; stroke-width: 1.0;"/><text fill="#000000" font-family="sans-serif" font-size="11" lengthAdjust="spacingAndGlyphs" textLength="60" x="26" y="123.6865">__str__(): str</text><path d="M227,50.5 L227,60.353 L146,81.4547 L227,68.353 L227,78.206 A0,0 0 0 0 227,78.206 L515,78.206 A0,0 0 0 0 515,78.206 L515,60.5 L505,50.5 L227,50.5 A0,0 0 0 0 227,50.5 " fill="#FBFB77" filter="url(#f1dgqsjvgzlbfd)" style="stroke: #A80036; stroke-width: 1.0;"/><path d="M505,50.5 L505,60.5 L515,60.5 L505,50.5 " fill="#FBFB77" style="stroke: #A80036; stroke-width: 1.0;"/><text fill="#000000" font-family="sans-serif" font-size="13" lengthAdjust="spacingAndGlyphs" textLength="267" x="233" y="69.397">Calculada pela média ponderada das colunas</text><!--MD5=[cffce9210659570160c5da6896ca59d4]
link RelatorioUnicidadeGeral to RelatorioUnicidadeGeral$$$RIGHT--><!--MD5=[0dc5045050b004b5d70174cfb5391a40]
@startuml
class RelatorioUnicidadeGeral {
  +timestamp_inicio: DateTime
  +tabela_analisada: CharField
  +media_unicidade: Float
  +detalhe_por_coluna: JSONField
  - -
  +__str__(): str
}

note right of RelatorioUnicidadeGeral::media_unicidade
  Calculada pela média ponderada das colunas
end note

@enduml

PlantUML version 1.2020.02(Sun Mar 01 10:22:07 UTC 2020)
(GPL source distribution)
Java Runtime: OpenJDK Runtime Environment
JVM: OpenJDK 64-Bit Server VM
Java Version: 21.0.8+9-Ubuntu-0ubuntu124.04.1
Operating System: Linux
Default Encoding: UTF-8
Language: pt
Country: BR
--></g></svg>